Coordinates
version=1
nRows=9
nColumns=36
inDegrees=yes

Units are S.I. units (second, meters, Newtons, ...)
If the header above contains a line with 'inDegrees', this indicates whether rotational values are in degrees (yes) or radians (no).

endheader
time	pelvis_tilt	pelvis_list	pelvis_rotation	pelvis_tx	pelvis_ty	pelvis_tz	hip_flexion_r	hip_adduction_r	hip_rotation_r	knee_angle_r	knee_angle_r_beta	ankle_angle_r	subtalar_angle_r	mtp_angle_r	hip_flexion_l	hip_adduction_l	hip_rotation_l	knee_angle_l	knee_angle_l_beta	ankle_angle_l	subtalar_angle_l	mtp_angle_l	lumbar_extension	lumbar_bending	lumbar_rotation	arm_flex_r	arm_add_r	arm_rot_r	elbow_flex_r	pro_sup_r	arm_flex_l	arm_add_l	arm_rot_l	elbow_flex_l	pro_sup_l
      4.48333330	      3.04554116	     -2.67061031	      0.46828402	      0.20951166	      0.99365969	     -0.04357037	     -1.91611796	      3.15336311	     -9.08310930	      0.46136962	      0.00805242	      7.95671589	      3.45015085	     -7.49999987	      0.26019307	     -4.62329969	    -13.81148883	      2.11702601	      0.03694907	      6.37283272	     10.95514948	     -7.49999987	     -4.38254437	      4.22091433	      0.52656458	     17.03931340	     -1.23853184	    -18.32875295	     86.87101097	     76.89467126	      0.75123771	     -4.30258124	      5.44851922	     15.83235826	     52.38298318
      4.50000000	      3.01473041	     -2.63526111	      0.55028782	      0.21081713	      0.99684379	     -0.04422296	     -1.94322843	      3.15543511	     -9.13378248	      0.47464198	      0.00828407	      7.91878838	      3.45709770	     -7.49999987	      0.29893335	     -4.62663777	    -13.85051100	      2.19350962	      0.03828396	      6.37567370	     11.02290018	     -7.49999987	     -4.30503911	      4.19576498	      0.43213995	     17.20057605	     -0.83374922	    -18.49259904	     88.99099899	     76.17832809	      0.58392253	     -4.32097256	      5.24674086	     16.04770842	     52.64935006
      4.51666670	      2.95041720	     -2.61803856	      0.59364961	      0.21007737	      0.99775335	     -0.04372976	     -1.87153131	      3.13698514	     -9.07091778	      0.47858938	      0.00835296	      7.95067255	      3.45561800	     -7.49999987	      0.38214038	     -4.62655936	    -13.88221505	      2.23400760	      0.03899079	      6.42962086	     10.98446959	     -7.49999987	     -4.22814417	      4.19294608	      0.52585242	     17.27073735	     -0.44740136	    -19.15260728	     91.20536971	     76.51455459	      0.49171391	     -4.38462756	      5.57492113	     16.26394172	     52.74269910
      4.53333330	      2.90793941	     -2.57868091	      0.66335887	      0.21004570	      0.99373309	     -0.04441370	     -1.85127743	      3.13279939	     -8.70839269	      0.46860720	      0.00817874	      7.77714228	      2.71600495	     -7.49999987	      0.42684627	     -4.56269499	    -13.65701917	      2.20068687	      0.03840923	      6.38254293	     10.55176870	     -7.49999987	     -4.18233882	      4.21052223	     -0.25902636	     17.89431370	      0.23609862	    -18.44756159	     92.87697139	     75.54810236	     -0.28007104	     -4.58699002	      5.45781285	     17.45395447	     53.13379615
      4.55000000	      2.94540891	     -2.56536108	      0.78560545	      0.21080540	      0.99083764	     -0.04434214	     -1.93814753	      3.13121905	     -8.90471797	      0.49037642	      0.00855868	      8.14411051	      3.18632522	     -7.49999987	      0.45921513	     -4.55456332	    -13.77892187	      2.30925292	      0.04030407	      6.83963339	     10.80983827	     -7.49999987	     -4.23682814	      4.22719285	     -0.49043682	     18.25820719	      0.59271135	    -18.13654024	     95.23837296	     75.06466230	     -0.63922556	     -4.65130603	      5.22632738	     18.10728432	     53.26186379
      4.56666670	      2.73482374	     -2.55024946	      0.82648705	      0.20999264	      0.99284051	     -0.04485392	     -1.68681329	      3.10607138	     -8.86771916	      0.50505699	      0.00881491	      8.28967214	      3.20766952	     -7.49999987	      0.78835320	     -4.52748674	    -13.86494605	      2.37761450	      0.04149720	      6.93950478	     10.93619598	     -7.49999987	     -3.93010623	      4.29254591	     -0.62249510	     18.66065970	      1.17393379	    -18.10157192	     97.43931502	     75.28160447	     -0.73403780	     -4.65181219	      5.25615481	     17.94210271	     53.21040486
      4.58333330	      2.68097935	     -2.55085287	      0.87380601	      0.21010741	      0.99565990	     -0.04506250	     -1.60919873	      3.07593206	     -8.79544126	      0.51247960	      0.00894446	      8.28246411	      3.22659774	     -7.49999987	      0.89177644	     -4.51931156	    -14.05082751	      2.41971640	      0.04223202	      7.03988525	     11.20449940	     -7.49999987	     -3.89848633	      4.33494234	      0.17325803	     18.56463491	      1.26784651	    -18.93833173	    100.56301132	     75.54539645	     -0.41869624	     -4.58293531	      5.51862972	     17.99933291	     53.18988050
      4.60000000	      2.64073587	     -2.59341459	      0.93706639	      0.21423002	      0.99110218	     -0.04433139	     -1.60720758	      3.12596422	     -8.76139247	      0.52354452	      0.00913758	      8.38959283	      3.17079234	     -7.49999987	      0.90158611	     -4.58760787	    -14.02880063	      2.43689858	      0.04253190	      7.13981416	     11.28483676	     -7.49999987	     -3.75703908	      4.44802453	      0.14777260	     18.85197079	      1.61048646	    -18.86038486	    102.90977317	     75.19171938	     -0.78802099	     -4.63715507	      5.63503778	     18.43760000	     53.35608477
      4.61666670	      2.68375366	     -2.63866020	      1.03632409	      0.21467875	      0.99548005	     -0.04370692	     -1.73155148	      3.19489652	     -8.84176064	      0.53268815	      0.00929716	      8.48611964	      3.29966809	     -7.49999987	      0.81602476	     -4.66796075	    -13.92817810	      2.43452626	      0.04249050	      7.16594761	     11.32343571	     -7.49999987	     -3.66907004	      4.59120928	     -0.03123394	     19.12084754	      2.09044090	    -18.47953674	    104.82061106	     75.34187823	     -1.15626335	     -4.63076002	      5.75627487	     18.72855597	     53.30034403
